<svg width="92" height="94" viewBox="0 0 92 94" fill="none" xmlns="http://www.w3.org/2000/svg">
<path d="M53.5 41.5C52.35 26.396 91 1 91 1C74.2617 8.39626 30.8782 42.9386 22.6832 32.1266C20.6128 29.3949 26.4344 48.4926 24.422 43.4126C19.1613 30.1331 3.23025 43 4.5 43C16.7797 43 -2.86562 50.6731 1.68631 77.9657C5.32786 99.7999 30.1319 93.1336 42.0787 87.0713C39.2779 85.515 21.3127 89.545 13.5 86C6.0761 82.6314 6 70.5 9 65.7109C12.0002 60.9216 24 47.0874 34.5 43C46 38 49.5759 38.268 53.5 41.5Z" stroke="black"/>
</svg>
